PathFileType	4	(X/Y/Z)	path1_12_0-587.trc
DataRate	CameraRate	NumFrames	NumMarkers	Units	OrigDataRate	OrigDataStartFrame	OrigNumFrames
30	30	6	22	m	30	440	587
Frame#	Time	Hip			RHip			RKnee			RAnkle			RBigToe			RSmallToe			RHeel			LHip			LKnee			LAnkle			LBigToe			LSmallToe			LHeel			Neck			Head			Nose			RShoulder			RElbow			RWrist			LShoulder			LElbow			LWrist		
		X1	Y1	Z1	X2	Y2	Z2	X3	Y3	Z3	X4	Y4	Z4	X5	Y5	Z5	X6	Y6	Z6	X7	Y7	Z7	X8	Y8	Z8	X9	Y9	Z9	X10	Y10	Z10	X11	Y11	Z11	X12	Y12	Z12	X13	Y13	Z13	X14	Y14	Z14	X15	Y15	Z15	X16	Y16	Z16	X17	Y17	Z17	X18	Y18	Z18	X19	Y19	Z19	X20	Y20	Z20	X21	Y21	Z21	X22	Y22	Z22
441	14.7	-0.39020205713110667	0.8368998373355483	0.7309558424022791	-0.3935060609857292	0.8137522713903446	0.6319500179271126	-0.4542046405053834	0.46590322090353586	0.6485731782952819	-0.44601972281903024	0.09262576852106104	0.6877111113232955	-0.6336103846156188	0.02147611900465418	0.6819744916216903	-0.5920080165872232	0.010847005523871273	0.6325580546782784	-0.4075734656287649	0.027612778327370982	0.7051419227303392	-0.3808322582289039	0.8086007625724441	0.8242124985823215	-0.4614863520924106	0.47446965825998366	0.8256963782452957	-0.14911073124478233	0.2556101678262347	0.8030955583091047	-0.18850283956152786	0.06566603388047396	0.8318247581931074	-0.16899602810883638	0.09495255895461804	0.8720035981335084	-0.06990195205007647	0.24915276238525216	0.7988248706047386	-0.3962900960267174	1.4429542039342498	0.729725790854075	-0.43452350328868505	1.68363032489974	0.7037633298381898	-0.5446571585784171	1.5582061082747787	0.7453844625964182	-0.3802543266358129	1.3579886084637958	0.5420483343500895	-0.3141149176330206	1.0713943037174047	0.5186935075093868	-0.3466760975966934	0.8310215534495836	0.48012434153226674	-0.3780937271029157	1.336876757777279	0.9145300176732886	-0.37816314190093064	1.0619269494497923	0.9518446447021883	-0.5111803020317123	0.8542187127948521	0.9730430731384369
442	14.733333333333333	-0.42882662956961903	0.8415950862692565	0.7316157936692673	-0.42840101102852746	0.8169518225413774	0.6323950990125766	-0.46981331013827204	0.4706328953769747	0.6481845114368672	-0.4464047505424494	0.09507605012256479	0.6878299138008093	-0.6332948122241241	0.018430470673574815	0.6824234096597582	-0.5899989276063378	0.009519762228366124	0.6335663883524069	-0.40649904600441983	0.030638079703767904	0.703792273603266	-0.42296817659583047	0.8133578126936009	0.825432442126212	-0.5325854605908887	0.4876556167487302	0.8249310863131484	-0.2383785319659422	0.2502924544102027	0.8095198375889284	-0.30234364276971215	0.06403489829512234	0.8422137415501155	-0.2758119953022495	0.09377513730922353	0.8784158013738385	-0.1658279411169017	0.23829457990819175	0.8045582415705115	-0.432069676201588	1.4466375367849367	0.7294239148959133	-0.49047161997978667	1.6881163834014863	0.7211800219944302	-0.5698809896674045	1.5599144684362583	0.7309157225386003	-0.4167221265495312	1.361051356235832	0.5422913234899502	-0.3677858307224523	1.071135916098561	0.515522848561915	-0.41243835433230275	0.8344186364080122	0.47753885578573785	-0.4117392501682695	1.3419657515077925	0.9152245853054559	-0.40399046898301805	1.0655091325163233	0.9503467325525182	-0.5219982869548617	0.8510876443596151	0.9699889296726988
443	14.766666666666667	-0.46499419952227666	0.8457002492656401	0.732436303229902	-0.46102176080769874	0.8194242912973663	0.6327145064016847	-0.4844136568480563	0.47391522847221096	0.6473234337729373	-0.44671661631663423	0.09770048121583388	0.6881665008178526	-0.6322372775244803	0.01640719148224802	0.6814056077355416	-0.5869109540027941	0.00928917908438814	0.6336612180033454	-0.40622743124131644	0.03327343643430778	0.7025861085452206	-0.46241149717947916	0.8170292799733966	0.8270998390828272	-0.5940693719427156	0.49967505289114345	0.8244328079906267	-0.3331554771911166	0.23510515073987004	0.8162631677962953	-0.4291148442710504	0.05696843991098081	0.8483343426175166	-0.3936256037471311	0.08619417450244032	0.8832954106652157	-0.26895839309215586	0.21355744095185997	0.8093932012905035	-0.4671875950293829	1.4498983339317402	0.7292891628310404	-0.5375077722644194	1.691784242763148	0.73135454230689	-0.5928435133389544	1.5599880191129538	0.7150166134178504	-0.451240020654084	1.3631428462568629	0.5429580338013668	-0.4211742128104804	1.0725670157116247	0.5108695559084369	-0.47935426349465404	0.838918032438841	0.47536004967279794	-0.4451171796551536	1.347186978902398	0.9160650803039748	-0.42876754269113654	1.0698982870587577	0.9512056555055648	-0.5283374599338087	0.8476297659957102	0.967358790583224
444	14.8	-0.4990685639763424	0.8485387709871027	0.7330778965245264	-0.49145739682648415	0.8207252985886321	0.6326692290860432	-0.4987458733458003	0.47507270264872564	0.6464500396709868	-0.4469910744160991	0.09971705634409941	0.6888640969090348	-0.6305598000638128	0.014927973345685784	0.6792699195990075	-0.5827801277166432	0.009762513852645895	0.6330414034989719	-0.40678392422138426	0.03503370407466456	0.702415309027818	-0.4992558056471701	0.8190300229764346	0.8287803437740486	-0.6462291096755153	0.508487440772207	0.8251565274333305	-0.4331749711869963	0.2121571556568638	0.8239793829671271	-0.562918968486006	0.048261242367329336	0.8509174419596356	-0.5184562352736227	0.0756839376515926	0.8874660957476623	-0.3786073185642628	0.17823456651156155	0.8145113280488578	-0.5022060953480186	1.4522895830869311	0.7292794362895314	-0.5785627929726885	1.6950778110541644	0.7362927626997405	-0.6141951253864455	1.5579773105390862	0.6979711652381397	-0.48495952725645247	1.3640110461059984	0.5438520998810514	-0.4734846308651868	1.0749682535369591	0.5053515545099573	-0.5469877124592847	0.8442629304322797	0.4736354903678572	-0.4786858732346092	1.3520620949234203	0.9171029945075799	-0.4530783456004762	1.0750033982408134	0.953780742257911	-0.5315171392982674	0.8442681973232039	0.9652386948764591
445	14.833333333333334	-0.5316511659050416	0.849615014398499	0.7334043143752819	-0.5202907456914473	0.8205934503388816	0.632180830175134	-0.5130250225212972	0.4739377150228614	0.6464431199085958	-0.44732010698794095	0.1004969860509842	0.6900101369257994	-0.6282138166011355	0.014076626826946772	0.6767249962566817	-0.5782952477645857	0.010640895789809061	0.6322151204492312	-0.40779793755136323	0.0357974232291062	0.7037572996013799	-0.5339726251210726	0.8191200277471784	0.83014036911616	-0.6905800945347156	0.5122638065979888	0.8274142152615	-0.5367527974660766	0.18510169610292124	0.8323166633253453	-0.6959724955374782	0.042223292581515456	0.8512419531816522	-0.64558113416846	0.06577838162457288	0.8910196617207031	-0.4927789353975976	0.1381900699430048	0.8202065161199964	-0.5375457293879166	1.4534088255504718	0.7294285129602591	-0.6169881487942788	1.6981179875789467	0.7385720084564933	-0.6322288187213632	1.5531861583710886	0.6773924843084765	-0.5195036209786459	1.3639688723333674	0.5447705870024495	-0.5244736620191385	1.0773078700505407	0.4999304312791621	-0.6147202707692039	0.8499334217332306	0.4725477882979346	-0.512715979440645	1.3558423116406733	0.918525636192	-0.4774365944892757	1.0800697710314506	0.9571800532510873	-0.5341110665944635	0.8412067147269111	0.963970140339251
446	14.866666666666667	-0.5634213278091682	0.8487601038241821	0.7335059403471266	-0.5486653226425291	0.8191591138774422	0.6313829935641805	-0.5274684149486444	0.4706639256392343	0.6479872323421461	-0.4477713634849743	0.0998210017954258	0.691564763393931	-0.6252106864689674	0.014184299771957402	0.6747934807416209	-0.5747009345586931	0.01145624959722904	0.6318470595002783	-0.40892300885044736	0.03589678698475647	0.7066345866682754	-0.5673411422618144	0.8175638892908295	0.8310413632438592	-0.7293445125268814	0.5099779858204453	0.8309450017572608	-0.6405537755307666	0.15847400092163277	0.8400134472234244	-0.8207576807562027	0.04232917697967467	0.8505514636770014	-0.7693576060845926	0.059444791929587674	0.893855081037075	-0.6072145667038243	0.10023036152312921	0.8260237592586771	-0.5735800539319857	1.4529967243148447	0.7298682100602503	-0.6552148438155296	1.7004913838716138	0.7402824180490045	-0.6472909339353392	1.5458374561132806	0.6532141324002148	-0.5563052366711473	1.3635915689384235	0.5456082319270018	-0.5744219478987151	1.07888690911137	0.49542795117355864	-0.6816311680804112	0.8552511888677766	0.4723726478407334	-0.5475179815864123	1.357692250920591	0.9205805249210074	-0.5022621334870843	1.0839809697930596	0.9604600399162383	-0.539567469522776	0.8385227268429798	0.9643037136452748
